Coordinates
version=1
nRows=26
nColumns=24
inDegrees=yes

Units are S.I. units (second, meters, Newtons, ...)
Angles are in degrees.

endheader
time	pelvis_tilt	pelvis_list	pelvis_rotation	pelvis_tx	pelvis_ty	pelvis_tz	hip_flexion_r	hip_adduction_r	hip_rotation_r	knee_angle_r	ankle_angle_r	subtalar_angle_r	mtp_angle_r	hip_flexion_l	hip_adduction_l	hip_rotation_l	knee_angle_l	ankle_angle_l	subtalar_angle_l	mtp_angle_l	lumbar_extension	lumbar_bending	lumbar_rotation
      5.50500000	     -8.86928390	     -6.09150319	      5.35636095	     -1.46703683	     -0.00122421	     -0.26334800	     12.86111633	     10.34022743	      4.26565821	    -11.71195006	      0.51782339	     -2.80393037	     12.97001065	     25.79403767	     -8.59065264	      0.82066727	    -62.67344057	    -13.40326230	     -6.14594447	     22.27878931	      7.93603260	      4.86577236	     -1.52336482
      5.51000000	     -8.84780080	     -5.86659901	      5.03561546	     -1.46211547	     -0.00074487	     -0.26266224	     12.28671498	     10.23621123	      4.68099863	    -11.40934269	      0.72492847	     -2.75977769	     12.64522145	     26.27500126	     -8.42685180	      0.40863211	    -62.26585106	    -12.73980106	     -6.05775127	     22.37416866	      7.81175235	      4.67989908	     -0.96272176
      5.51500000	     -8.88421134	     -5.62435943	      4.87713915	     -1.45726307	     -0.00037214	     -0.26220524	     11.78549901	     10.05232008	      4.88578259	    -11.08685301	      0.93838189	     -2.69795641	     12.54212093	     26.84735149	     -8.13371909	      0.18529216	    -61.79776877	    -12.15476356	     -6.02408664	     22.48588751	      7.75842707	      4.43595575	     -0.63042507
      5.52000000	     -8.89892779	     -5.40940769	      4.67000102	     -1.45242312	     -0.00000775	     -0.26171119	     11.25647474	      9.89960293	      5.09446186	    -10.74535901	      1.12122810	     -2.55618298	     12.47671340	     27.36987550	     -7.89836126	     -0.07645230	    -61.26387525	    -11.57803262	     -5.97839874	     22.58402888	      7.67913646	      4.22884803	     -0.23100784
      5.52500000	     -8.89971322	     -5.20734928	      4.47160681	     -1.44759933	      0.00031502	     -0.26124021	     10.71119247	      9.75216336	      5.26827952	    -10.38956321	      1.30333224	     -2.39500382	     12.44885556	     27.86475938	     -7.67402003	     -0.32356796	    -60.66972918	    -11.02530812	     -5.94776491	     22.64937190	      7.58697513	      4.04085013	      0.15480034
      5.53000000	     -8.85426863	     -5.02629239	      4.25328886	     -1.44280212	      0.00062860	     -0.26076707	     10.11876193	      9.62652730	      5.43115091	    -10.03018490	      1.48603181	     -2.17217343	     12.45130170	     28.28919348	     -7.48804087	     -0.58759592	    -60.01692877	    -10.46567173	     -5.94015264	     22.64178634	      7.43798564	      3.88277130	      0.55710952
      5.53500000	     -8.87149253	     -4.84311519	      4.11047882	     -1.43799948	      0.00081168	     -0.26039664	      9.58755787	      9.47492541	      5.51913919	     -9.64257537	      1.66115044	     -2.03420894	     12.49605057	     28.78907957	     -7.24633003	     -0.75500509	    -59.31615842	     -9.99218620	     -5.93412355	     22.64548545	      7.37139838	      3.70382730	      0.87555186
      5.54000000	     -8.85722915	     -4.67219705	      3.92247234	     -1.43321546	      0.00097593	     -0.26000036	      9.02862107	      9.34125605	      5.62974513	     -9.26399877	      1.83001555	     -1.84696646	     12.58775502	     29.22241841	     -7.04239931	     -0.95409752	    -58.55101010	     -9.51400268	     -5.94274959	     22.61378343	      7.26317525	      3.55040319	      1.24367087
      5.54500000	     -8.82939312	     -4.51108027	      3.74210577	     -1.42844446	      0.00109506	     -0.25961847	      8.45846810	      9.21499284	      5.73143456	     -8.88485253	      1.99226636	     -1.67017498	     12.70711790	     29.62568730	     -6.84517903	     -1.13379789	    -57.72998031	     -9.06418486	     -5.97534266	     22.52920386	      7.14280263	      3.40460655	      1.60210845
      5.55000000	     -8.78648393	     -4.36092696	      3.55596091	     -1.42368563	      0.00116794	     -0.25927882	      7.87646068	      9.09688119	      5.83545046	     -8.50882412	      2.14968340	     -1.50930243	     12.85493256	     29.99392102	     -6.66086260	     -1.30973854	    -56.85643418	     -8.63083230	     -6.02997604	     22.37825955	      7.00423420	      3.28128126	      1.95694780
      5.55500000	     -8.70490428	     -4.23126550	      3.35115927	     -1.41894548	      0.00122871	     -0.25894668	      7.26169012	      9.00183784	      5.96218771	     -8.14439559	      2.26736377	     -1.35084940	     13.05259239	     30.29671094	     -6.50940991	     -1.49472893	    -55.92992562	     -8.17660820	     -6.11683338	     22.08900909	      6.81846616	      3.18456394	      2.29973860
      5.56000000	     -8.68355945	     -4.10120913	      3.17282375	     -1.41419965	      0.00116800	     -0.25867500	      6.71758590	      8.89795383	      6.08799342	     -7.78807046	      2.39029489	     -1.28317138	     13.21225974	     30.65450271	     -6.33179818	     -1.62205616	    -54.95547840	     -7.77339512	     -6.17094920	     21.80917187	      6.70668665	      3.08650563	      2.62540445
      5.56500000	     -8.64110265	     -3.98244394	      2.96757565	     -1.40946391	      0.00109574	     -0.25839167	      6.16174391	      8.80991315	      6.25563791	     -7.45320154	      2.48913487	     -1.23919156	     13.35962288	     30.96010927	     -6.18033916	     -1.75472872	    -53.92259554	     -7.38837911	     -6.23541149	     21.44346309	      6.57080997	      3.00174143	      2.99241066
      5.57000000	     -8.58060764	     -3.88346824	      2.76507226	     -1.40475495	      0.00097483	     -0.25812909	      5.59318773	      8.74339420	      6.44807091	     -7.12504693	      2.57270540	     -1.26445356	     13.48856841	     31.23930050	     -6.05243365	     -1.87319533	    -52.86151185	     -7.01041229	     -6.28014274	     20.93427728	      6.40994090	      2.94439918	      3.38963617
      5.57500000	     -8.58201469	     -3.77572825	      2.55922109	     -1.40001924	      0.00075827	     -0.25789381	      5.11215057	      8.66336487	      6.65858874	     -6.84612431	      2.68324265	     -1.31514457	     13.55076863	     31.54990915	     -5.91385999	     -1.98313904	    -51.72471828	     -6.66487495	     -6.31842701	     20.51181458	      6.32449685	      2.87555722	      3.71587551
      5.58000000	     -8.51923151	     -3.68884592	      2.33993835	     -1.39534975	      0.00055831	     -0.25764487	      4.58214341	      8.61637104	      6.90358613	     -6.59813823	      2.75210878	     -1.47593033	     13.53940616	     31.77241937	     -5.80594327	     -2.08171939	    -50.55439129	     -6.25745922	     -6.32169461	     19.79811482	      6.15271506	      2.82990784	      4.12522947
      5.58500000	     -8.56580318	     -3.59123593	      2.12353380	     -1.39060288	      0.00022415	     -0.25741623	      4.18061125	      8.54507839	      7.16543669	     -6.38689708	      2.90079154	     -1.54322809	     13.52090845	     32.07893729	     -5.68862363	     -2.17503690	    -49.30114086	     -6.00182654	     -6.35524565	     19.39631379	      6.12587319	      2.76177989	      4.43534986
      5.59000000	     -8.56678125	     -3.48602455	      1.87017058	     -1.38591113	     -0.00008415	     -0.25721218	      3.74597044	      8.46958958	      7.47870722	     -6.20454027	      3.03319481	     -1.68831015	     13.42389312	     32.29959738	     -5.57751652	     -2.27628641	    -47.99303025	     -5.74693424	     -6.39258784	     18.84633053	      6.02573402	      2.71049837	      4.82645973
      5.59500000	     -8.50871105	     -3.43759587	      1.66541558	     -1.38123756	     -0.00038966	     -0.25703060	      3.25298143	      8.46348265	      7.85310850	     -6.03838274	      3.09560986	     -2.03175153	     13.00687355	     32.46416979	     -5.50983673	     -2.31785996	    -46.70608215	     -5.25272553	     -6.18484601	     17.65519863	      5.86069403	      2.70511342	      5.19806702
      5.60000000	     -8.58122525	     -3.36527347	      1.39304971	     -1.37659917	     -0.00084757	     -0.25684966	      2.95334516	      8.41794701	      8.17284772	     -5.96668047	      3.30206523	     -2.09441267	     12.89722484	     32.71942910	     -5.44352364	     -2.39506440	    -45.29776475	     -5.11603137	     -6.27279448	     17.16849752	      5.83519435	      2.69057761	      5.61137275
      5.60500000	     -8.60193433	     -3.27773761	      1.13395291	     -1.37191666	     -0.00127195	     -0.25666614	      2.58867813	      8.36046634	      8.55475365	     -5.88934347	      3.46876459	     -2.30094740	     12.63582880	     32.88214034	     -5.36807399	     -2.47541362	    -43.83981290	     -4.91201238	     -6.26756272	     16.47733543	      5.75657841	      2.65140045	      6.01233691
      5.61000000	     -8.70919795	     -3.18969543	      0.95791701	     -1.36722736	     -0.00184530	     -0.25657304	      2.34962199	      8.29534536	      8.78094112	     -5.85938826	      3.67362676	     -2.46813295	     12.51692676	     33.12743489	     -5.24657797	     -2.44412701	    -42.32371700	     -4.77826112	     -6.19306659	     16.06211777	      5.77753553	      2.59115999	      6.28278593
      5.61500000	     -8.66768310	     -3.14757534	      0.70759192	     -1.36248919	     -0.00230745	     -0.25640952	      1.90780347	      8.29225343	      9.30793104	     -5.79446983	      3.85976742	     -2.86252951	     11.77682285	     33.18938044	     -5.23074431	     -2.52755228	    -40.85308316	     -4.25713599	     -5.94563255	     14.62742797	      5.63836774	      2.60000614	      6.68896946
      5.62000000	     -8.80513946	     -3.08889475	      0.45145757	     -1.35783051	     -0.00293988	     -0.25630286	      1.73535590	      8.25399987	      9.57328044	     -5.83286741	      4.10983285	     -2.88580172	     11.63675379	     33.41220365	     -5.18823052	     -2.56182129	    -39.25629094	     -4.20123368	     -5.98753599	     14.09832678	      5.68399921	      2.59461872	      7.07846765
      5.62500000	     -8.90933605	     -3.00004757	      0.23370014	     -1.35303054	     -0.00356349	     -0.25620717	      1.49644722	      8.18023391	      9.87209619	     -5.83066825	      4.33708771	     -3.00092407	     11.46480659	     33.55727818	     -5.11467536	     -2.60640061	    -37.60493081	     -4.07289957	     -5.91286886	     13.54320651	      5.71821563	      2.53780879	      7.38212561
      5.63000000	     -8.93101058	     -2.95485451	      0.04874971	     -1.34832480	     -0.00416712	     -0.25617495	      1.18337524	      8.15821896	     10.22583936	     -5.86877228	      4.61740851	     -3.21452588	     10.87254852	     33.62419246	     -5.06129352	     -2.56577741	    -36.00653233	     -3.58911293	     -5.55313436	     12.25165324	      5.63712306	      2.53504498	      7.70477375
